<?xml version="1.0" encoding="UTF-8"?>
<svg width="157px" height="100px" viewBox="0 0 157 100" version="1.1" xmlns="http://www.w3.org/2000/svg" xmlns:xlink="http://www.w3.org/1999/xlink">
    <!-- Generator: sketchtool 58 (101010) - https://sketch.com -->
    <title>65A846AF-5763-4A55-BA16-D1CC2CB70660</title>
    <desc>Created with sketchtool.</desc>
    <g id="Layout" stroke="none" stroke-width="1" fill="none" fill-rule="evenodd">
        <g id="Startseite-(Desktop)" transform="translate(-1241.000000, -17.000000)">
            <g id="Head-Header-/-Home" transform="translate(255.000000, 0.000000)">
                <g id="Head">
                    <g id="Logo" transform="translate(986.000000, 17.000000)">
                        <polygon id="Fill-1" fill="#005EB8" points="26.0776998 64.1634436 26.0776998 73.6232092 24.2627797 73.6232092 24.2627797 60.7426777 25.5543664 60.7426777 33.2327133 70.1982306 33.2327133 60.7426777 35.0476333 60.7426777 35.0476333 73.6232092 33.7560466 73.6232092"></polygon>
                        <path d="M44.4822874,72.0581674 C47.0905808,72.0581674 49.0541274,69.9791673 49.0541274,67.1797843 C49.0541274,64.4014651 47.0905808,62.3056139 44.4822874,62.3056139 C41.8467807,62.3056139 39.9104474,64.4014651 39.9104474,67.1797843 C39.9104474,69.9791673 41.8467807,72.0581674 44.4822874,72.0581674 M44.4822874,60.5573161 C48.0870074,60.5573161 50.8711407,63.4283161 50.8711407,67.1797843 C50.8711407,70.9354652 48.0870074,73.8022525 44.4822874,73.8022525 C40.8503541,73.8022525 38.0662208,70.9354652 38.0662208,67.1797843 C38.0662208,63.4283161 40.8503541,60.5573161 44.4822874,60.5573161" id="Fill-2" fill="#005EB8"></path>
                        <path d="M58.2832133,65.7988389 C59.1058933,65.7988389 59.5161867,65.6197964 59.8092533,65.3249028 C60.1002267,65.0279028 60.2760667,64.6066262 60.2760667,64.1453284 C60.2760667,63.6861369 60.1002267,63.2648603 59.8092533,62.965754 C59.5161867,62.6750731 59.1058933,62.4939242 58.2832133,62.4939242 L55.7084133,62.4939242 L55.7084133,65.7988389 L58.2832133,65.7988389 Z M55.7084134,67.5492431 L55.7084134,73.621945 L53.8872134,73.621945 L53.8872134,60.7414135 L58.3711334,60.7414135 C59.5475868,60.7414135 60.2760668,61.0194561 60.8622001,61.497605 C61.6262668,62.1210943 62.1223868,63.0816049 62.1223868,64.1453283 C62.1223868,65.2132644 61.6262668,66.1674559 60.8622001,66.795158 C60.4519068,67.1258601 59.9850935,67.3659877 59.3717468,67.4755197 L63.9394002,73.621945 L61.7414001,73.621945 L57.1737468,67.5492431 L55.7084134,67.5492431 Z" id="Fill-4" fill="#005EB8"></path>
                        <path d="M73.7276182,63.576186 C72.9363382,62.8768669 71.8519915,62.4913988 70.0642848,62.4913988 L68.1614448,62.4913988 L68.1614448,71.8753348 L70.0642848,71.8753348 C71.8519915,71.8753348 72.9363382,71.4898667 73.7276182,70.7884412 C74.6947382,69.9227178 75.2808715,68.6188668 75.2808715,67.1802072 C75.2808715,65.7478668 74.6947382,64.439803 73.7276182,63.576186 L73.7276182,63.576186 Z M66.3130315,73.6236323 L66.3130315,60.7431009 L70.1522049,60.7431009 C72.2036716,60.7431009 73.5224716,61.1854413 74.5482049,61.9584839 C76.1286716,63.1359519 77.1271916,65.0485476 77.1271916,67.1802071 C77.1271916,69.3181857 76.1600716,71.2307814 74.5775116,72.4103558 C73.5224716,73.1812919 72.2036716,73.6236323 70.1522049,73.6236323 L66.3130315,73.6236323 Z" id="Fill-6" fill="#005EB8"></path>
                        <path d="M140.098848,93.5510691 C135.468395,90.9517925 130.695595,88.2619414 120.992994,87.693218 C111.292488,87.1181755 106.222434,89.2308776 101.328221,91.2656436 C96.6412473,93.2119415 92.2138472,95.0550266 83.9242471,94.8233244 C83.6039671,95.3857287 83.2522871,95.9354947 82.9006071,96.487367 C92.0715006,96.8917925 96.9950207,94.8591329 101.744794,92.8770266 C106.752047,90.8043457 111.443208,88.8390904 120.873674,89.3993883 C130.312515,89.9512606 134.765035,92.4536436 139.483408,95.0992606 C140.069541,95.4278564 140.657768,95.7585585 141.271115,96.0850478 C141.947261,96.3967925 142.587821,96.729601 143.203261,97.0982181 C145.315435,98.1408776 147.657875,99.0992819 150.590635,99.8133457 C150.854395,99.303601 151.118155,98.7854308 151.348422,98.2588351 C146.546315,97.1656223 143.379101,95.3941542 140.098848,93.5510691" id="Fill-8" fill="#005EB8"></path>
                        <path d="M119.676704,85.3382821 C128.876904,85.9027927 133.270811,88.3440905 137.957784,90.9223032 C139.979944,92.0407926 142.035597,93.176133 144.524571,94.1429627 C146.693264,94.9813031 149.184331,95.6869414 152.290837,96.1419201 C152.495984,95.6068989 152.699037,95.0571329 152.908371,94.5010478 C146.314371,93.5910904 142.588237,91.5415798 138.636024,89.3762182 C134.062091,86.8527714 129.345811,84.2408566 119.881851,83.6679204 C110.413704,83.0928779 105.431571,85.1002608 100.627371,87.0381331 C97.9625574,88.1060693 95.3856641,89.144516 92.1305308,89.7785373 C90.4035308,90.107133 88.4944108,90.3261969 86.3005975,90.3830692 C86.0054375,90.9370479 85.7437708,91.4952394 85.4465175,92.0407926 C92.5387308,91.9544309 96.7881974,90.2503671 100.891131,88.588431 C105.816744,86.6231757 110.445104,84.7674523 119.676704,85.3382821" id="Fill-10" fill="#005EB8"></path>
                        <path d="M118.441846,81.2902365 C127.409686,81.8610662 131.74498,84.2391726 136.375433,86.749981 C138.37038,87.8326619 140.390447,88.9385129 142.8229,89.8737469 C145.69914,90.9627469 149.125927,91.8116193 153.722887,92.1697044 C153.90082,91.6094065 154.074567,91.0406831 154.223193,90.4698533 C145.84358,89.8716406 141.621327,87.6135981 137.166713,85.2060024 C132.626273,82.7647045 127.99582,80.2244067 118.766313,79.6556833 C109.505406,79.0701088 104.615379,80.9784918 99.8970061,82.8131513 C97.2887127,83.8305343 94.7683393,84.8205343 91.5718193,85.4082151 C90.6046993,85.5872577 89.5517526,85.7241726 88.4360059,85.8189598 C88.2057392,86.364513 87.9419792,86.9058534 87.7033392,87.4471938 C93.0099393,87.0427683 96.5853527,85.6609811 100.039353,84.3107896 C104.847739,82.4529598 109.417486,80.7004492 118.441846,81.2902365" id="Fill-12" fill="#005EB8"></path>
                        <path d="M117.213268,77.2419783 C125.946655,77.82334 130.223335,80.134042 134.824482,82.5816589 C136.756628,83.6264248 138.753668,84.7048929 141.154722,85.6043184 C144.200522,86.7501907 147.895255,87.6201268 152.906695,87.9002757 C153.607962,87.9360842 154.252709,87.9592544 154.870242,87.9655736 C155.014682,87.3989566 155.131909,86.8218077 155.249135,86.2425524 C154.604389,86.2320205 153.930335,86.2151694 153.256282,86.1793609 C144.524988,85.701212 140.246215,83.4494887 135.674375,81.0397867 C131.190455,78.6764251 126.618615,76.2119571 117.650775,75.6411274 C108.597108,75.0555529 103.790815,76.8628294 99.1645478,78.5921698 C96.6127744,79.5568931 94.1510144,80.4963399 91.015201,81.0376803 L90.2825343,81.1493186 C90.1066943,81.6717015 89.903641,82.1835526 89.6984943,82.6954036 C93.5062677,82.1498504 96.3804144,81.0777016 99.1645478,80.035042 C103.910135,78.2698932 108.394055,76.6374465 117.213268,77.2419783" id="Fill-14" fill="#005EB8"></path>
                        <path d="M115.894679,73.1269488 C124.420826,73.7146296 128.640986,75.9621403 133.183519,78.3423532 C135.088453,79.3492043 137.047813,80.3981831 139.425839,81.2681193 C142.413026,82.3823959 146.049146,83.2144172 150.970573,83.4819278 C152.699666,83.5746087 154.282226,83.5746087 155.745466,83.5008853 C155.83548,82.9258427 155.9234,82.3465874 155.97992,81.7631193 C154.575293,81.8347363 153.051346,81.8368427 151.380866,81.750481 C142.852626,81.3018214 138.634559,79.1364596 134.150639,76.8046936 C129.727426,74.5171616 125.212106,72.1285232 116.480813,71.5597998 C107.630199,70.9636934 102.913919,72.6635445 98.3713861,74.3044169 C96.2906128,75.0479701 94.2684528,75.7767786 91.9239194,76.2907361 C91.7773861,76.7773106 91.6308527,77.2638851 91.4550127,77.7483532 C94.0360928,77.2006936 96.1419861,76.4360765 98.2541594,75.6862042 C102.884613,74.0284807 107.307826,72.5055658 115.894679,73.1269488" id="Fill-16" fill="#005EB8"></path>
                        <path d="M114.66212,69.0580461 C122.9266,69.6562589 127.11536,71.8405781 131.601373,74.1491739 C133.506306,75.1244292 135.409146,76.1418123 137.726466,76.9801527 C140.713653,78.0586208 144.230453,78.8590464 149.036746,79.1097059 C151.818786,79.2550464 154.19472,79.1581528 156.306893,78.9053868 C156.334106,78.3303442 156.392719,77.7531953 156.419933,77.1718336 C154.42708,77.4140676 152.170466,77.5046421 149.53496,77.3740463 C141.241173,76.9527697 137.111026,74.8695569 132.656413,72.6178334 C128.260413,70.4082376 123.8372,68.0912163 115.338267,67.5224929 C106.722107,66.9263865 102.093747,68.5230248 97.6391334,70.0627908 C96.2031068,70.5556844 94.7984801,71.0338334 93.3017468,71.4508972 C93.1866135,71.8995568 93.0693868,72.3440036 92.9500668,72.7926632 C94.5347201,72.3671739 95.9665601,71.8679611 97.3753734,71.3855994 C101.915813,69.8353015 106.282507,68.4198121 114.66212,69.0580461" id="Fill-18" fill="#005EB8"></path>
                        <path d="M113.404867,64.9904131 C121.4642,65.6160088 125.594347,67.7181789 130.019653,69.9572639 C131.897373,70.898817 133.768813,71.8867106 136.02752,72.6934552 C138.956093,73.7361147 142.443586,74.5070509 147.130559,74.7429658 C150.913213,74.9325402 153.929706,74.6734551 156.510786,74.172136 L156.510786,72.4617531 C154.078333,72.9293701 151.264893,73.1631786 147.689479,72.9988807 C139.65736,72.6007744 135.55652,70.601817 131.162613,68.4343491 C126.825227,66.3005832 122.45644,64.0551791 114.194054,63.4906685 C105.816534,62.888243 101.242601,64.3837748 96.8759079,65.8224343 C96.0574146,66.0983705 95.2347346,66.3637747 94.4162413,66.6207534 C94.3304147,67.0251789 94.2404013,67.4296044 94.1524814,67.8319236 C94.9709747,67.5875831 95.7350413,67.3369236 96.4970146,67.086264 C100.976748,65.6433917 105.230401,64.3542854 113.404867,64.9904131" id="Fill-20" fill="#005EB8"></path>
                        <path d="M112.174202,60.9236177 C119.969775,61.557639 124.039215,63.592405 128.437308,65.7704051 C130.254321,66.6740434 132.100641,67.6303413 134.325854,68.4012775 C137.229308,69.4123413 140.654001,70.147469 145.196534,70.3707456 C149.944214,70.6024477 153.431707,70.1242988 156.39168,69.3512562 C156.33516,68.7930647 156.305854,68.2348732 156.24724,67.6703625 C153.488227,68.3907455 150.239374,68.8141285 145.843374,68.6224477 C138.047801,68.2517243 134.005574,66.3349157 129.666094,64.2432774 C125.360108,62.1916603 121.083428,60.0220858 113.082708,59.4575751 C104.876842,58.8509368 100.424322,60.2390432 96.1455487,61.5829156 C95.8817887,61.6692773 95.5866287,61.755639 95.2956554,61.8483199 C95.2663487,62.2106177 95.1784287,62.5771284 95.1198154,62.9457454 L95.6159354,62.7856603 C100.009842,61.4438943 104.198602,60.2727454 112.174202,60.9236177" id="Fill-23" fill="#005EB8"></path>
                        <path d="M110.914843,56.854929 C118.503177,57.503695 122.51819,59.4731631 126.853483,61.5795461 C128.64119,62.4473759 130.458203,63.3741844 132.656203,64.1114185 C135.498949,65.0908866 138.869216,65.7902057 143.294522,66.0050568 C148.831389,66.2641419 152.670562,65.5395461 155.921509,64.5095248 C155.833589,63.9639717 155.745669,63.4163121 155.659842,62.8707589 C152.641255,63.8291631 149.126549,64.4652908 144.025096,64.246227 C136.434669,63.921844 132.451056,62.0703333 128.172283,60.0566312 C123.922816,58.0850567 119.70475,56.0018439 111.938483,55.424695 C104.320844,54.8538652 100.012764,55.9870992 95.9684438,57.1750992 C95.9391372,57.5079078 95.9098305,57.844929 95.8512172,58.1798439 C99.7804037,57.0845248 103.82263,56.2503971 110.914843,56.854929" id="Fill-25" fill="#005EB8"></path>
                        <path d="M109.682298,52.7891884 C117.036178,53.4463799 120.992578,55.3463374 125.271351,57.3853161 C127.029751,58.2236566 128.817458,59.1146566 130.956844,59.8245077 C133.768191,60.7660609 137.050537,61.4358906 141.387924,61.635997 C147.571631,61.9119332 151.61595,60.9408906 155.103444,59.7065502 C154.986217,59.1757417 154.86899,58.6470396 154.72455,58.1141247 C151.498724,59.2621034 147.806084,60.0983374 142.179204,59.8687417 C134.825324,59.5738481 130.927538,57.8044864 126.678071,55.8708268 C122.489311,53.9750821 118.325671,51.9719118 110.825258,51.3905501 C104.174738,50.8765927 100.069712,51.6601672 96.4670849,52.616465 C96.4377783,52.9282097 96.4063783,53.237848 96.3812583,53.5559119 C99.8059515,52.7491672 103.588605,52.2457416 109.682298,52.7891884" id="Fill-27" fill="#005EB8"></path>
                        <path d="M108.420855,48.7204997 C115.542375,49.3903295 119.442255,51.2292018 123.687534,53.1986699 C125.418721,53.9990954 127.172934,54.8563932 129.255801,55.5367549 C132.039934,56.4424996 135.263668,57.0807336 139.454521,57.2639889 C146.136441,57.5525634 150.266587,56.3666698 153.92992,54.986989 C153.783387,54.4709252 153.638947,53.9548613 153.463107,53.4409039 C150.063534,54.7215847 146.314374,55.7200102 140.333721,55.4925209 C133.214294,55.2250102 129.373028,53.5377975 125.184268,51.6862869 C121.049934,49.8684784 116.978401,47.9390317 109.683135,47.35767 C103.880415,46.8942657 100.041242,47.4166487 96.7609883,48.1580955 C96.7609883,48.463521 96.7316816,48.7668402 96.7002816,49.0680529 C99.7460816,48.5056487 103.264975,48.2339253 108.420855,48.7204997" id="Fill-29" fill="#005EB8"></path>
                        <path d="M107.161709,44.6515975 C114.080176,45.3340655 117.917256,47.1055336 122.108109,49.005491 C123.805802,49.770108 125.536989,50.6000228 127.557055,51.2487888 C130.316068,52.1208313 133.477002,52.7253632 137.552721,52.8980866 C144.494215,53.1803419 148.653668,51.838576 152.434228,50.380959 C152.258388,49.8775335 152.082548,49.3762143 151.877401,48.8727888 C148.389908,50.2250867 144.640748,51.3351505 138.490535,51.118193 C131.601375,50.875959 127.820815,49.2730016 123.690669,47.5015336 C119.587735,45.7574485 115.599936,43.9080443 108.539123,43.3266826 C103.469069,42.9032996 99.9250562,43.2403209 96.933683,43.7985124 C96.908563,44.0955124 96.908563,44.3925124 96.908563,44.6916187 C99.6298963,44.3293209 102.765709,44.2176826 107.161709,44.6515975" id="Fill-31" fill="#005EB8"></path>
                        <path d="M105.931039,40.5776418 C112.583652,41.2685354 116.391425,42.9768119 120.525759,44.8072587 C122.196239,45.5381735 123.862532,46.3343863 125.859572,46.9494501 C128.580905,47.7898969 131.660198,48.3607266 135.616598,48.5187054 C142.679505,48.7925351 146.807558,47.3707267 150.646731,45.8836203 C150.445771,45.3949395 150.207131,44.9062587 149.974771,44.4217906 C146.487278,45.7867267 142.792545,46.9304926 136.640238,46.7367054 C129.989718,46.5239607 126.269865,45.0010459 122.196239,43.3054077 C118.151919,41.6434715 114.222732,39.8656844 107.427772,39.2843227 C102.941759,38.8988546 99.6908127,39.0968546 96.9338928,39.5097057 L96.9338928,40.402812 C99.3663461,40.1921737 102.179786,40.187961 105.931039,40.5776418" id="Fill-33" fill="#005EB8"></path>
                        <path d="M104.67169,36.3248541 C111.117063,37.028386 114.83901,38.6692583 118.944037,40.4301944 C120.581023,41.1316199 122.22429,41.8941306 124.185743,42.4775986 C126.854744,43.2822369 129.87333,43.8193646 133.71041,43.9668114 C140.626784,44.217471 144.671104,42.8209391 148.478878,41.3633221 C148.215118,40.8914923 147.953451,40.4133434 147.689691,39.9415136 C144.317331,41.2537902 140.714704,42.3427901 134.824064,42.1763859 C128.407997,41.9889178 124.715357,40.5481519 120.700343,38.9346625 C116.714637,37.3527689 112.84825,35.6508115 106.283556,35.0631307 C102.327156,34.7113647 99.3399694,34.8124711 96.7881959,35.1010456 C96.8175026,35.4043647 96.8175026,35.7034711 96.8489026,36.0088966 C99.0155027,35.9098966 101.506569,35.9794073 104.67169,36.3248541" id="Fill-35" fill="#005EB8"></path>
                        <path d="M103.441022,32.0718566 C109.624729,32.7838141 113.315276,34.361495 117.386809,36.0550269 C118.971463,36.7227503 120.581236,37.4515589 122.488263,38.0055376 C125.125863,38.772261 128.08165,39.2798993 131.776383,39.4126014 C138.341076,39.6295589 142.297476,38.3509844 145.931503,36.9734099 C145.638437,36.512112 145.34537,36.0508142 145.05021,35.593729 C141.88509,36.792261 138.428996,37.7527716 132.977956,37.6158567 C126.794249,37.4536652 123.191623,36.099261 119.205916,34.5616014 C115.249516,33.0534311 111.468956,31.4294098 105.140809,30.8459417 C101.624009,30.5194524 98.8691823,30.5489417 96.5267422,30.7448354 C96.5539555,31.0502609 96.5832622,31.3598992 96.6125689,31.6653247 C98.5175023,31.6484737 100.742716,31.7643247 103.441022,32.0718566" id="Fill-37" fill="#005EB8"></path>
                        <path d="M115.806756,31.6800716 C117.362102,32.3098801 118.944662,33.0070929 120.786796,33.5315823 C123.397182,34.2624972 126.298542,34.734327 129.871862,34.8564972 C135.879728,35.0397526 139.660288,33.9570717 143.059862,32.7079865 C142.735395,32.2593269 142.385808,31.8148801 142.061342,31.3683269 C139.189288,32.3857099 135.940435,33.1566461 131.132049,33.0534333 C125.182795,32.9207312 121.638782,31.6484758 117.711689,30.1950715 C113.813902,28.762731 110.094049,27.2103267 104.027569,26.6268586 C100.833143,26.3214331 98.3127694,26.2982629 96.1419828,26.4183267 C96.1733828,26.7300714 96.2026894,27.0460288 96.2319961,27.3661991 C97.9631827,27.404114 99.8953293,27.5431352 102.181249,27.8190714 C108.157716,28.5436672 111.789649,30.0581566 115.806756,31.6800716" id="Fill-39" fill="#005EB8"></path>
                        <path d="M114.222519,27.3057453 C115.748559,27.8997453 117.270412,28.5632559 119.087426,29.0561495 C121.668506,29.7554687 124.477759,30.1935964 127.965252,30.3031283 C133.211146,30.4505751 136.730039,29.6101283 139.834452,28.5548304 C139.455559,28.11249 139.072479,27.6743623 138.691492,27.2362346 C136.169025,28.0177027 133.299066,28.5611495 129.284052,28.4895325 C123.571346,28.3863198 120.085946,27.1962134 116.215372,25.8207453 C112.378292,24.4684474 108.714959,22.9918729 102.882933,22.4084049 C99.9815726,22.1156176 97.6391326,22.0587453 95.5876659,22.1261495 C95.6441859,22.4442134 95.7027993,22.7622772 95.7341993,23.0866602 C97.2581459,23.1645963 98.9579326,23.3141495 100.921479,23.5690219 C106.692799,24.2999368 110.240999,25.7512346 114.222519,27.3057453" id="Fill-41" fill="#005EB8"></path>
                        <path d="M112.640381,22.9284702 C114.107808,23.4929809 115.631755,24.120683 117.417368,24.5819808 C119.939835,25.243385 122.694661,25.6520233 126.033528,25.7468106 C130.341608,25.8542361 133.477421,25.2876191 136.144328,24.4893 C135.731941,24.0469596 135.292341,23.6025128 134.852741,23.1622787 C132.803368,23.6593851 130.458834,23.9690234 127.467461,23.9247894 C121.959901,23.8510659 118.531021,22.7452149 114.723248,21.4476831 C110.915475,20.1754278 107.367275,18.7704704 101.773888,18.1891087 C99.0462748,17.9068534 96.8482748,17.8268109 94.9454348,17.8457683 C94.9998615,18.1722577 95.0312615,18.5008534 95.0877815,18.8273427 C96.4651948,18.9284491 97.9619281,19.0822151 99.6889281,19.3118108 C105.196488,20.0511512 108.715381,21.4476831 112.640381,22.9284702" id="Fill-43" fill="#005EB8"></path>
                        <path d="M111.060123,18.5522491 C112.496149,19.0830576 113.986603,19.6749512 115.719883,20.1130789 C118.208856,20.7344619 120.907163,21.1115044 124.128803,21.1957597 C127.296016,21.2652704 129.814296,20.9598448 131.980896,20.4732704 C131.455469,19.9972278 130.927949,19.525398 130.373216,19.0535682 C128.966496,19.2578874 127.411149,19.3842704 125.625536,19.3674193 C120.377549,19.3189725 117.009376,18.293164 113.226723,17.077781 C109.477563,15.8792491 105.987976,14.5564406 100.629043,13.9729725 C98.047963,13.6907172 95.9671897,13.5875044 94.1208697,13.5727597 C94.1815763,13.9013555 94.2401897,14.2362703 94.330203,14.5669725 C95.5589897,14.6828235 96.905003,14.8429086 98.4582563,15.0598661 C103.73555,15.8118448 107.16443,17.1430789 111.060123,18.5522491" id="Fill-45" fill="#005EB8"></path>
                        <path d="M109.47777,14.1758173 C110.88449,14.6750301 112.351917,15.235328 114.01821,15.6376472 C116.47997,16.225328 119.088263,16.5686684 122.19477,16.6381791 C124.04109,16.6718812 125.652957,16.5707748 127.116197,16.3875195 C126.442143,15.8461791 125.71157,15.3111578 125.00821,14.7740301 C124.597917,14.7887748 124.21693,14.8056259 123.77733,14.8035195 C118.738677,14.7824556 115.452143,13.8409024 111.73229,12.7076684 C108.03965,11.5870726 104.612863,10.3337747 99.4862897,9.75241299 C96.995223,9.47015767 94.9437564,9.3416683 93.1246497,9.29743426 C93.2104763,9.63234916 93.3004897,9.96305129 93.3863163,10.3000726 C94.533463,10.4285619 95.7936497,10.5970726 97.1982764,10.8077109 C102.239023,11.5660088 105.638597,12.8403705 109.47777,14.1758173" id="Fill-47" fill="#005EB8"></path>
                        <path d="M107.895428,9.7985423 C109.272841,10.2640529 110.679561,10.7885423 112.318641,11.1634784 C114.749001,11.7153508 117.300775,12.0270954 120.290055,12.0818614 C120.581028,12.0839678 120.817575,12.0734358 121.108548,12.0734358 C120.026295,11.369904 118.944041,10.6832231 117.828295,10.0049678 C115.073468,9.68269124 112.760335,9.05498913 110.239961,8.33249979 C106.603841,7.29405301 103.235668,6.11237219 98.3728542,5.53101051 C95.8503875,5.23190414 93.8010142,5.08235095 92.0112141,5.00652116 C92.1012275,5.34143605 92.1870541,5.6805637 92.2770675,6.02179773 C93.3886275,6.160819 94.5922942,6.33775517 95.9404009,6.55260622 C100.776001,7.32143599 104.085561,8.53681893 107.895428,9.7985423" id="Fill-49" fill="#005EB8"></path>
                        <path d="M106.313288,5.42442748 C107.661395,5.85412959 109.036715,6.34281042 110.650675,6.68825722 C111.293328,6.82727849 111.967382,6.95155508 112.639342,7.05687422 C109.505621,5.38651259 106.196061,3.80251265 102.649955,2.31751271 C101.006688,1.91940634 99.2503811,1.56553402 97.2282211,1.31276807 C94.6199277,0.984172336 92.5119409,0.80512979 90.6363142,0.701917028 C90.7535409,1.03683191 90.8707676,1.37385317 90.9879942,1.71087444 C92.0995543,1.87306592 93.3325276,2.06895953 94.709941,2.30066165 C99.2796878,3.07791693 102.562035,4.23432114 106.313288,5.42442748" id="Fill-51" fill="#005EB8"></path>
                        <polygon id="Fill-53" fill="#D22630" points="45.2162083 34.9363283 50.8703015 34.9363283 50.8703015 36.6846261 43.367795 36.6846261 43.367795 23.8040947 45.2162083 23.8040947"></polygon>
                        <polygon id="Fill-55" fill="#D22630" points="53.6270153 36.6810464 55.4419353 36.6810464 55.4419353 23.8047268 53.6270153 23.8047268"></polygon>
                        <polygon id="Fill-57" fill="#D22630" points="65.4932839 28.8629943 65.4932839 30.6112921 61.3024306 30.6112921 61.3024306 36.683994 59.4561106 36.683994 59.4561106 23.8034626 66.7827773 23.8034626 66.7827773 25.5538668 61.3024306 25.5538668 61.3024306 28.8629943"></polygon>
                        <polygon id="Fill-58" fill="#D22630" points="75.5448411 28.8629943 75.5448411 30.6112921 71.3560811 30.6112921 71.3560811 34.9356962 77.0101744 34.9356962 77.0101744 36.683994 69.5369744 36.683994 69.5369744 23.8034626 76.8322411 23.8034626 76.8322411 25.5538668 71.3560811 25.5538668 71.3560811 28.8629943"></polygon>
                        <path d="M1.26228004,51.9314687 C1.9928534,52.8519581 3.07929344,53.5891922 4.39600015,53.5891922 C5.56826686,53.5891922 6.62540023,52.8161496 6.62540023,51.6576389 C6.62540023,49.6881707 3.92709347,49.4670005 2.22940008,48.3442983 C1.29158671,47.7397664 0.586133353,46.8550855 0.586133353,45.5091067 C0.586133353,43.6323194 2.22940008,42.0883406 4.45461349,42.0883406 C6.09578687,42.0883406 7.20734691,42.8087236 7.8834936,43.377447 L6.82845357,44.7213194 C6.12509354,44.1336386 5.33381352,43.8366385 4.54253349,43.8366385 C3.46028012,43.8366385 2.40314675,44.4453833 2.40314675,45.5680854 C2.40314675,47.2026387 5.12866684,47.5544047 6.76984023,48.6602558 C7.64904026,49.2268728 8.43822695,50.1326176 8.43822695,51.6028729 C8.43822695,53.8672347 6.7112269,55.3374901 4.48392015,55.3374901 C2.72552009,55.3374901 1.14296004,54.5665539 0,53.186873 L1.26228004,51.9314687 Z" id="Fill-59" fill="#D22630"></path>
                        <path d="M17.0257078,42.0896048 C18.8427211,42.0896048 20.5697211,42.8436899 21.7126811,44.075924 L20.4818011,45.2913071 C19.7198278,44.4613921 18.4031211,43.83369 17.0257078,43.83369 C14.4174145,43.83369 12.3659479,45.9358603 12.3659479,48.7120732 C12.3659479,51.6209882 14.4488145,53.5904564 17.1994545,53.5904564 C18.9013344,53.5904564 20.1594278,52.6320521 20.8627877,51.768435 L22.1522811,52.9459032 C21.0721211,54.3613926 19.1630011,55.3387543 17.1994545,55.3387543 C13.3623745,55.3387543 10.5489346,52.5225202 10.5489346,48.7120732 C10.5489346,44.9985198 13.3330679,42.0896048 17.0257078,42.0896048" id="Fill-60" fill="#D22630"></path>
                        <polygon id="Fill-61" fill="#D22630" points="24.9064789 55.1561287 26.7234922 55.1561287 26.7234922 42.2734907 24.9064789 42.2734907"></polygon>
                        <polygon id="Fill-62" fill="#D22630" points="36.7773555 47.3330224 36.7773555 49.0813202 32.5844089 49.0813202 32.5844089 53.4057243 38.2426889 53.4057243 38.2426889 55.1540221 30.7694888 55.1540221 30.7694888 42.2734907 38.0647555 42.2734907 38.0647555 44.0196821 32.5844089 44.0196821 32.5844089 47.3330224"></polygon>
                        <polygon id="Fill-63" fill="#D22630" points="43.1923751 45.6944681 43.1923751 55.1542337 41.3774551 55.1542337 41.3774551 42.2737023 42.6376418 42.2737023 50.3118018 51.7292551 50.3118018 42.2737023 52.1602151 42.2737023 52.1602151 55.1542337 50.8707218 55.1542337"></polygon>
                        <path d="M61.654108,42.0896048 C63.4711213,42.0896048 65.2002146,42.8436899 66.3138679,44.075924 L65.1122946,45.2913071 C64.3503213,44.4613921 63.0022146,43.83369 61.654108,43.83369 C59.0186013,43.83369 56.994348,45.9358603 56.994348,48.7120732 C56.994348,51.6209882 59.0751213,53.5904564 61.8027346,53.5904564 C63.5297346,53.5904564 64.7606146,52.6320521 65.4932813,51.768435 L66.7827746,52.9459032 C65.6984279,54.3613926 63.7934946,55.3387543 61.8027346,55.3387543 C57.9907746,55.3387543 55.1773346,52.5225202 55.1773346,48.7120732 C55.1773346,44.9985198 57.9321613,42.0896048 61.654108,42.0896048" id="Fill-64" fill="#D22630"></path>
                        <polygon id="Fill-65" fill="#D22630" points="75.5448411 47.3330224 75.5448411 49.0813202 71.3560811 49.0813202 71.3560811 53.4057243 77.0101744 53.4057243 77.0101744 55.1540221 69.5369744 55.1540221 69.5369744 42.2734907 76.8322411 42.2734907 76.8322411 44.0196821 71.3560811 44.0196821 71.3560811 47.3330224"></polygon>
                    </g>
                </g>
            </g>
        </g>
    </g>
</svg>